<svg width="201" height="247" viewBox="0 0 201 247" fill="none" xmlns="http://www.w3.org/2000/svg">
<path d="M11.3958 226.5C8.13021 225.135 5.41667 222.833 3.25 219.583C1.08333 216.333 0 212.948 0 209.417V18.2917C0 13.4167 1.82292 9.15625 5.47917 5.5C9.14583 1.83333 13.4167 0 18.2917 0H61C64.7917 0 68.1771 1.15625 71.1667 3.45833C74.151 5.76563 76.3177 8.54167 77.6667 11.7917L93.125 26.8333C96.651 30.3646 98.4167 34.2917 98.4167 38.625V40.6667H118.333C129.443 40.6667 139.609 43.3125 148.833 48.6042C158.052 53.8854 165.375 60.8646 170.792 69.5417L181.771 80.1042C187.464 85.8021 191.938 92.375 195.188 99.8333C198.438 107.292 200.062 115.354 200.062 124.021V185.021C200.062 196.411 197.354 206.781 191.938 216.125C186.521 225.484 179.13 232.943 169.771 238.5C160.422 244.052 150.052 246.833 138.667 246.833H115.479C107.354 246.833 99.6302 245.339 92.3125 242.354C90.9479 243.438 89.3177 244.448 87.4167 245.396C85.526 246.354 83.5 246.833 81.3333 246.833H38.625C34.2917 246.833 30.3594 245.068 26.8333 241.542L11.3958 226.5Z" fill="#5E4ADA"/>
<mask id="mask0_55_268" style="mask-type:luminance" maskUnits="userSpaceOnUse" x="30" y="102" width="153" height="77">
<path d="M182.151 102.606H30.1511V178.606H182.151V102.606Z" fill="white"/>
</mask>
<g mask="url(#mask0_55_268)">
<path d="M51.445 162.829C49.4293 162.829 47.6793 162.495 46.195 161.829C44.7054 161.162 43.57 160.318 42.7783 159.287H42.4866L41.9033 162.245H34.1741V120.704H43.1325V134.579H43.445C44.07 133.787 45.1012 133.058 46.5491 132.391C47.9918 131.724 49.6221 131.391 51.445 131.391C54.0127 131.391 56.3668 132.053 58.5075 133.37C60.6429 134.693 62.346 136.553 63.6116 138.954C64.872 141.344 65.5075 144.068 65.5075 147.12C65.5075 150.162 64.872 152.886 63.6116 155.287C62.346 157.678 60.6429 159.532 58.5075 160.849C56.3668 162.172 54.0127 162.829 51.445 162.829ZM49.8408 154.579C51.7835 154.579 53.3877 153.902 54.6533 152.537C55.9137 151.178 56.5491 149.37 56.5491 147.12C56.5491 144.86 55.9137 143.053 54.6533 141.704C53.3877 140.36 51.7835 139.683 49.8408 139.683C47.9085 139.683 46.3043 140.36 45.0283 141.704C43.7627 143.053 43.1325 144.86 43.1325 147.12C43.1325 149.37 43.7627 151.178 45.0283 152.537C46.3043 153.902 47.9085 154.579 49.8408 154.579Z" fill="#DBFFD3"/>
<path d="M80.4049 162.245H71.4466V120.704H80.4049V162.245Z" fill="#DBFFD3"/>
<path d="M102.249 162.829C99.2493 162.829 96.5409 162.152 94.1243 160.787C91.7076 159.428 89.8013 157.553 88.4159 155.162C87.0409 152.761 86.3534 150.079 86.3534 147.12C86.3534 144.152 87.0409 141.469 88.4159 139.079C89.8013 136.678 91.7076 134.797 94.1243 133.433C96.5409 132.073 99.2493 131.391 102.249 131.391C105.093 131.391 107.692 132.068 110.041 133.412C112.4 134.745 114.254 136.594 115.603 138.954C116.947 141.303 117.624 143.902 117.624 146.745C117.624 147.818 117.525 148.808 117.333 149.724H95.2493C95.4836 151.391 96.2545 152.787 97.5618 153.912C98.8638 155.037 100.426 155.599 102.249 155.599C103.593 155.599 104.739 155.344 105.687 154.829C106.645 154.318 107.359 153.782 107.833 153.224H116.853C116.463 154.573 115.671 155.985 114.478 157.454C113.296 158.912 111.666 160.178 109.583 161.245C107.51 162.297 105.067 162.829 102.249 162.829ZM108.791 144.329C108.551 142.662 107.838 141.277 106.645 140.162C105.463 139.053 103.999 138.495 102.249 138.495C100.385 138.495 98.843 139.053 97.6243 140.162C96.4003 141.277 95.6086 142.662 95.2493 144.329H108.791Z" fill="#DBFFD3"/>
<path d="M123.265 162.245V131.974H130.974L131.578 134.641H131.869C132.578 133.808 133.651 133.058 135.099 132.391C136.541 131.724 138.291 131.391 140.349 131.391C142.651 131.391 144.703 131.922 146.494 132.974C148.296 134.016 149.703 135.495 150.703 137.412C151.713 139.329 152.224 141.553 152.224 144.079V162.245H143.265V145.558C143.265 143.907 142.755 142.558 141.744 141.516C140.744 140.464 139.411 139.933 137.744 139.933C136.078 139.933 134.734 140.464 133.724 141.516C132.724 142.558 132.224 143.907 132.224 145.558V162.245H123.265Z" fill="#DBFFD3"/>
<path d="M170.575 162.245C167.684 162.245 165.481 161.537 163.971 160.12C162.471 158.693 161.721 156.651 161.721 153.995V140.454H156.971V131.974H161.721V122.599H170.679V131.974H177.512V140.454H170.679V152.099C170.679 152.849 170.835 153.386 171.158 153.704C171.476 154.026 172.012 154.183 172.762 154.183H177.512V162.245H170.575Z" fill="#DBFFD3"/>
</g>
</svg>
